<svg width="164" height="156" viewBox="0 0 164 156" fill="none" xmlns="http://www.w3.org/2000/svg">
<g id="Group 136">
<g id="Group 146">
<ellipse id="Ellipse 16" cx="82" cy="77.6608" rx="82" ry="77.485" fill="#70D6FF"/>
<path id="Vector" d="M117.217 53.3713H99.3913V45.1856C99.3913 40.6835 95.3804 37 90.4783 37H72.6522C67.75 37 63.7391 40.6835 63.7391 45.1856V53.3713H45.913C41.0109 53.3713 37 57.0548 37 61.5569V110.671C37 115.173 41.0109 118.856 45.913 118.856H117.217C122.12 118.856 126.13 115.173 126.13 110.671V61.5569C126.13 57.0548 122.12 53.3713 117.217 53.3713ZM72.6522 45.1856H90.4783V53.3713H72.6522V45.1856ZM99.3913 90.2066H86.0217V102.485H77.1087V90.2066H63.7391V82.021H77.1087V69.7426H86.0217V82.021H99.3913V90.2066Z" fill="white"/>
</g>
</g>
</svg>
