<svg width="166" height="155" viewBox="0 0 166 155" fill="none" xmlns="http://www.w3.org/2000/svg">
<g id="Group">
<path id="Vector" d="M115.754 61.8425C115.754 70.0323 112.292 77.8867 106.13 83.6778C99.9681 89.4688 91.6104 92.7222 82.8957 92.7222C74.1811 92.7222 65.8234 89.4688 59.6612 83.6778C53.499 77.8867 50.0371 70.0323 50.0371 61.8425C50.0371 53.6528 53.499 45.7984 59.6612 40.0073C65.8234 34.2163 74.1811 30.9629 82.8957 30.9629C91.6104 30.9629 99.9681 34.2163 106.13 40.0073C112.292 45.7984 115.754 53.6528 115.754 61.8425Z" fill="#70D6FF"/>
<path id="Vector_2" fill-rule="evenodd" clip-rule="evenodd" d="M79.545 154.419C35.7321 152.767 0.75 118.861 0.75 77.2812C0.75 34.6441 37.527 0.0820312 82.8966 0.0820312C128.266 0.0820312 165.043 34.6441 165.043 77.2812C165.043 119.918 128.266 154.48 82.8966 154.48C82.5214 154.483 82.1463 154.483 81.7712 154.48C81.0277 154.48 80.2843 154.457 79.545 154.419ZM30.1831 125.994C29.5689 124.336 29.3599 122.57 29.5715 120.826C29.7831 119.082 30.4099 117.405 31.4054 115.92C32.4009 114.435 33.7395 113.18 35.3219 112.248C36.9043 111.315 38.6898 110.73 40.5459 110.535C72.5666 107.204 93.4237 107.505 125.288 110.604C127.147 110.786 128.937 111.364 130.522 112.294C132.107 113.225 133.445 114.483 134.434 115.972C135.424 117.462 136.038 119.144 136.231 120.891C136.425 122.638 136.191 124.403 135.548 126.052C149.205 113.066 156.853 95.5385 156.828 77.2812C156.828 38.9093 123.728 7.80195 82.8966 7.80195C42.0656 7.80195 8.96466 38.9093 8.96466 77.2812C8.96466 96.2567 17.0602 113.457 30.1831 125.994Z" fill="#70D6FF"/>
</g>
</svg>
