<svg width="200" height="193" viewBox="0 0 200 193" fill="none" xmlns="http://www.w3.org/2000/svg">
<g id="mdi:smiley">
<path id="Vector" d="M83 0C37.101 0 0 36.225 0 80.5C0 101.85 8.74462 122.325 24.3101 137.422C32.0174 144.897 41.1672 150.827 51.2373 154.872C61.3073 158.918 72.1003 161 83 161C105.013 161 126.124 152.519 141.69 137.422C157.255 122.325 166 101.85 166 80.5C166 69.9286 163.853 59.4607 159.682 49.694C155.511 39.9273 149.397 31.053 141.69 23.5779C133.983 16.1028 124.833 10.1732 114.763 6.1277C104.693 2.08219 93.8997 0 83 0ZM112.05 48.3C115.352 48.3 118.519 49.5722 120.853 51.8367C123.188 54.1012 124.5 57.1725 124.5 60.375C124.5 63.5775 123.188 66.6488 120.853 68.9133C118.519 71.1778 115.352 72.45 112.05 72.45C108.748 72.45 105.581 71.1778 103.247 68.9133C100.912 66.6488 99.6 63.5775 99.6 60.375C99.6 57.1725 100.912 54.1012 103.247 51.8367C105.581 49.5722 108.748 48.3 112.05 48.3ZM53.95 48.3C57.2519 48.3 60.4187 49.5722 62.7535 51.8367C65.0883 54.1012 66.4 57.1725 66.4 60.375C66.4 63.5775 65.0883 66.6488 62.7535 68.9133C60.4187 71.1778 57.2519 72.45 53.95 72.45C50.6481 72.45 47.4813 71.1778 45.1465 68.9133C42.8117 66.6488 41.5 63.5775 41.5 60.375C41.5 57.1725 42.8117 54.1012 45.1465 51.8367C47.4813 49.5722 50.6481 48.3 53.95 48.3ZM83 124.775C63.661 124.775 47.227 113.022 40.587 96.6H125.413C118.69 113.022 102.339 124.775 83 124.775Z" fill="#70D6FF"/>
</g>
</svg>
